# xmcd CD database file
#
# Track frame offsets:
#	150
#	15867
#	27592
#	37282
#	50780
#	63245
#	79075
#	89720
#	102477
#	111992
#	121727
#	135725
#	149007
#	168062
#	179580
#	192595
#	208360
#	219555
#
# Disc length: 3175 seconds
#
# Revision: 0
# Processed by: cddbd v1.5.2PL0 Copyright (c) Steve Scherf et al.
# Submitted via: CDex 1.51
#
DISCID=1a0c6512
DTITLE=Lewis Niderman and Band - Best of
DYEAR=1900
DGENRE=Country
TTITLE0=Da Sandler
TTITLE1=Truck Driver
TTITLE2=Bad Ischl wann i stirb
TTITLE3=Jonny's Station
TTITLE4=The Wreck Of The Old 97
TTITLE5=Lately I've Been Thinkin'
TTITLE6=Nashville Here I Come
TTITLE7=Nimm mi wia i bin
TTITLE8=Cajun Honey
TTITLE9=Aligator Cajun
TTITLE10=Wabash Cannon Ball
TTITLE11=Louisiana Woman
TTITLE12=Mr. Charles
TTITLE13=Milian's Cajun Fiddle
TTITLE14=Frisco Zydeco
TTITLE15=Väter miassn erst erwachsn werd
TTITLE16=Blue Moon of Kentucky
TTITLE17=The Accordion Man
EXTD=
EXTT0=
EXTT1=
EXTT2=
EXTT3=
EXTT4=
EXTT5=
EXTT6=
EXTT7=
EXTT8=
EXTT9=
EXTT10=
EXTT11=
EXTT12=
EXTT13=
EXTT14=
EXTT15=
EXTT16=
EXTT17=
PLAYORDER=
